<mxfile host="app.diagrams.net" modified="2023-01-29T12:33:10.953Z" agent="5.0 (Windows NT 10.0; Win64; x64) AppleWebKit/537.36 (KHTML, like Gecko) Chrome/109.0.0.0 Safari/537.36" etag="pKLp3lleCBRHTcZwXyMR" version="20.8.13" type="github">
  <diagram name="Page-1" id="ua980pMn25GZfdS-mpc6">
    <mxGraphModel dx="1434" dy="756" grid="1" gridSize="10" guides="1" tooltips="1" connect="1" arrows="1" fold="1" page="1" pageScale="1" pageWidth="850" pageHeight="1100" math="0" shadow="0">
      <root>
        <mxCell id="0" />
        <mxCell id="1" parent="0" />
        <mxCell id="quROMkmhO8KKixfGTfYL-1" value="" style="rounded=0;whiteSpace=wrap;html=1;labelBackgroundColor=none;fillColor=#FAE5C7;strokeColor=#0F8B8D;fontColor=#143642;" vertex="1" parent="1">
          <mxGeometry x="80" y="40" width="240" height="240" as="geometry" />
        </mxCell>
        <mxCell id="quROMkmhO8KKixfGTfYL-4" value="" style="whiteSpace=wrap;html=1;aspect=fixed;labelBackgroundColor=none;fillColor=#FAE5C7;strokeColor=#0F8B8D;fontColor=#143642;" vertex="1" parent="1">
          <mxGeometry x="440" y="40" width="240" height="240" as="geometry" />
        </mxCell>
        <mxCell id="quROMkmhO8KKixfGTfYL-5" value="questions&lt;span style=&quot;white-space: pre;&quot;&gt;	&lt;/span&gt;" style="rounded=0;whiteSpace=wrap;html=1;labelBackgroundColor=none;fillColor=#FAE5C7;strokeColor=#0F8B8D;fontColor=#143642;" vertex="1" parent="1">
          <mxGeometry x="490" y="60" width="140" height="50" as="geometry" />
        </mxCell>
        <mxCell id="quROMkmhO8KKixfGTfYL-6" value="email:string" style="rounded=0;whiteSpace=wrap;html=1;labelBackgroundColor=none;fillColor=#FAE5C7;strokeColor=#0F8B8D;fontColor=#143642;" vertex="1" parent="1">
          <mxGeometry x="490" y="120" width="140" height="50" as="geometry" />
        </mxCell>
        <mxCell id="quROMkmhO8KKixfGTfYL-7" value="text:string" style="rounded=0;whiteSpace=wrap;html=1;labelBackgroundColor=none;fillColor=#FAE5C7;strokeColor=#0F8B8D;fontColor=#143642;" vertex="1" parent="1">
          <mxGeometry x="490" y="180" width="140" height="50" as="geometry" />
        </mxCell>
        <mxCell id="quROMkmhO8KKixfGTfYL-13" value="modules" style="rounded=0;whiteSpace=wrap;html=1;labelBackgroundColor=none;fillColor=#FAE5C7;strokeColor=#0F8B8D;fontColor=#143642;" vertex="1" parent="1">
          <mxGeometry x="120" y="70" width="160" height="50" as="geometry" />
        </mxCell>
        <mxCell id="quROMkmhO8KKixfGTfYL-15" value="name:string" style="rounded=0;whiteSpace=wrap;html=1;labelBackgroundColor=none;fillColor=#FAE5C7;strokeColor=#0F8B8D;fontColor=#143642;" vertex="1" parent="1">
          <mxGeometry x="130" y="150" width="140" height="50" as="geometry" />
        </mxCell>
        <mxCell id="quROMkmhO8KKixfGTfYL-16" value="" style="whiteSpace=wrap;html=1;aspect=fixed;labelBackgroundColor=none;fillColor=#FAE5C7;strokeColor=#0F8B8D;fontColor=#143642;" vertex="1" parent="1">
          <mxGeometry x="80" y="360" width="280" height="280" as="geometry" />
        </mxCell>
        <mxCell id="quROMkmhO8KKixfGTfYL-18" value="teacher" style="rounded=0;whiteSpace=wrap;html=1;labelBackgroundColor=none;fillColor=#FAE5C7;strokeColor=#0F8B8D;fontColor=#143642;" vertex="1" parent="1">
          <mxGeometry x="140" y="380" width="160" height="50" as="geometry" />
        </mxCell>
        <mxCell id="quROMkmhO8KKixfGTfYL-19" value="email:string" style="rounded=0;whiteSpace=wrap;html=1;labelBackgroundColor=none;fillColor=#FAE5C7;strokeColor=#0F8B8D;fontColor=#143642;" vertex="1" parent="1">
          <mxGeometry x="140" y="450" width="160" height="50" as="geometry" />
        </mxCell>
        <mxCell id="quROMkmhO8KKixfGTfYL-20" value="password:string&lt;span style=&quot;white-space: pre;&quot;&gt;	&lt;/span&gt;" style="rounded=0;whiteSpace=wrap;html=1;labelBackgroundColor=none;fillColor=#FAE5C7;strokeColor=#0F8B8D;fontColor=#143642;" vertex="1" parent="1">
          <mxGeometry x="140" y="510" width="160" height="50" as="geometry" />
        </mxCell>
        <mxCell id="quROMkmhO8KKixfGTfYL-21" value="" style="rounded=0;whiteSpace=wrap;html=1;labelBackgroundColor=none;fillColor=#FAE5C7;strokeColor=#0F8B8D;fontColor=#143642;" vertex="1" parent="1">
          <mxGeometry x="440" y="360" width="240" height="240" as="geometry" />
        </mxCell>
        <mxCell id="quROMkmhO8KKixfGTfYL-22" value="answers" style="rounded=0;whiteSpace=wrap;html=1;labelBackgroundColor=none;fillColor=#FAE5C7;strokeColor=#0F8B8D;fontColor=#143642;" vertex="1" parent="1">
          <mxGeometry x="480" y="400" width="160" height="60" as="geometry" />
        </mxCell>
        <mxCell id="quROMkmhO8KKixfGTfYL-23" value="text:string" style="rounded=0;whiteSpace=wrap;html=1;labelBackgroundColor=none;fillColor=#FAE5C7;strokeColor=#0F8B8D;fontColor=#143642;" vertex="1" parent="1">
          <mxGeometry x="480" y="490" width="160" height="60" as="geometry" />
        </mxCell>
        <mxCell id="quROMkmhO8KKixfGTfYL-24" value="name:string" style="rounded=0;whiteSpace=wrap;html=1;labelBackgroundColor=none;fillColor=#FAE5C7;strokeColor=#0F8B8D;fontColor=#143642;" vertex="1" parent="1">
          <mxGeometry x="140" y="570" width="160" height="50" as="geometry" />
        </mxCell>
      </root>
    </mxGraphModel>
  </diagram>
</mxfile>
